# AST/ASF file generated using VICON BodyLanguage
# -----------------------------------------------
:version 1.10
:name VICON
:units
  mass 1.0
  length 0.45
  angle deg
:documentation
   .ast/.asf automatically generated from VICON data using
   VICON BodyBuilder and BodyLanguage model FoxedUp or BRILLIANT.MOD
:root
   order TX TY TZ RX RY RZ
   axis XYZ
   position 0 0 0  
   orientation 0 0 0 
:bonedata
  begin
     id 1 
     name lhipjoint
     direction 0.567149 -0.783011 0.255413 
     length 2.28399 
     axis 0 0 0  XYZ
  end
  begin
     id 2 
     name lfemur
     direction 0.34202 -0.939693 0  
     length 7.34031  
     axis 0 0 20  XYZ
    dof rx ry rz
    limits (-160.0 20.0)
           (-70.0 70.0)
           (-60.0 70.0)
  end
  begin
     id 3 
     name ltibia
     direction 0.34202 -0.939693 0   
     length 6.9833   
     axis 0 0 20   XYZ
    dof rx
    limits (-10.0 170.0)
  end
  begin
     id 4 
     name lfoot
     direction 0.136498 -0.375025 0.91691   
     length 2.33665   
     axis -90 7.62852e-016 20   XYZ
    dof rx rz
    limits (-45.0 90.0)
           (-70.0 20.0)
  end
  begin
     id 5 
     name ltoes
     direction 1.5367e-011 -4.21617e-011 1   
     length 1.15039   
     axis -90 7.62852e-016 20   XYZ
    dof rx
    limits (-90.0 20.0)
  end
  begin
     id 6 
     name rhipjoint
     direction -0.602854 -0.758518 0.247423   
     length 2.35775  
     axis 0 0 0  XYZ 
  end
  begin
     id 7 
     name rfemur
     direction -0.34202 -0.939693 0   
     length 7.43932   
     axis 0 0 -20   XYZ
    dof rx ry rz
    limits (-160.0 20.0)
           (-70.0 70.0)
           (-70.0 60.0)
  end
  begin
     id 8 
     name rtibia
     direction -0.34202 -0.939693 0   
     length 7.11893   
     axis 0 0 -20   XYZ
    dof rx
    limits (-10.0 170.0)
 end
 begin
     id 9 
     name rfoot
     direction -0.131771 -0.362037 0.922803   
     length 2.53019  
     axis -90 -7.62852e-016 -20   XYZ
    dof rx rz
    limits (-45.0 90.0)
           (-20.0 70.0)
  end
  begin
     id 10 
     name rtoes
     direction -1.53733e-011 -4.21932e-011 1   
     length 1.24596   
     axis -90 -7.62852e-016 -20   XYZ
    dof rx
    limits (-90.0 20.0)
  end
  begin
     id 11 
     name lowerback
     direction 0.0235427 0.999023 -0.0374125   
     length 2.21768   
     axis 0 0 0   XYZ
    dof rx ry rz
    limits (-20.0 45.0)
           (-30.0 30.0)
           (-30.0 30.0)
  end
  begin
     id 12 
     name upperback
     direction 0.0302156 0.996818 -0.073759   
     length 2.20352   
     axis 0 0 0   XYZ
    dof rx ry rz
    limits (-20.0 45.0)
           (-30.0 30.0)
           (-30.0 30.0)
  end
  begin
     id 13 
     name thorax
     direction 0.0187169 0.998235 -0.0563532   
     length 2.22103   
     axis 0 0 0   XYZ
    dof rx ry rz
    limits (-20.0 45.0)
           (-30.0 30.0)
           (-30.0 30.0)
  end
  begin
     id 14 
     name lowerneck
     direction -0.119528 0.987423 0.103481   
     length 1.72948   
     axis 0 0 0   XYZ
    dof rx ry rz
    limits (-20.0 45.0)
           (-30.0 30.0)
           (-30.0 30.0)
  end
  begin
     id 15 
     name upperneck
     direction 0.248049 0.963095 -0.104496   
     length 1.74979   
     axis 0 0 0   XYZ
    dof rx ry rz
    limits (-20.0 45.0)
           (-30.0 30.0)
           (-30.0 30.0)
  end
  begin
     id 16
     name head
     direction 0.0903589 0.994284 -0.056876  
     length 1.78268  
     axis 0 0 0   XYZ
    dof rx ry rz
    limits (-20.0 45.0)
           (-30.0 30.0)
           (-30.0 30.0)
  end
  begin
     id 17 
     name lclavicle
     direction 0.946008 0.242039 -0.215608  
     length 3.80783  
     axis 0 0 0   XYZ
    dof ry rz
    limits (-20.0 10.0)
           (0.0 20.0)
  end
  begin
     id 18 
     name lhumerus
     direction 1 -4.48991e-011 -2.25695e-027   
     length 4.83125   
     axis 180 -30 -90   XYZ
    dof rx ry rz
    limits (-60.0 90.0)
           (-90.0 90.0)
           (-90.0 90.0)
  end
  begin
     id 19
     name lradius
     direction 0.999991 0.00366712 -0.00211721   
     length 3.00391   
     axis 180 -30 -90   XYZ
    dof rx
    limits (-10.0 170.0)
  end
  begin
     id 20
     name lwrist
     direction 0.999991 0.00393016 -0.00141978   
     length 1.50195   
     axis -1.00488e-014 90 90   XYZ
    dof ry
    limits (-180.0 0.0)
 end
  begin
     id 21 
     name lhand
     direction 1 -4.49123e-011 2.72098e-026   
     length 1.2717   
     axis -1.73687e-014 90 90   XYZ
    dof rx rz
    limits (-90.0 90.0)
           (-45.0 45.0)
  end
  begin
     id 22 
     name lfingers
     direction 1 -4.48678e-011 5.4479e-026   
     length 1.02528   
     axis -3.47372e-014 90 90   XYZ
    dof rx
    limits (0.0 90.0)
  end
  begin
     id 23
     name lthumb
     direction 0.707107 -6.34851e-011 0.707107   
     length 1.4721   
     axis -90 45 -1.62303e-014   XYZ
    dof rx rz
    limits (-45.0 45.0)
           (-45.0 45.0)
  end
  begin
     id 24 
     name rclavicle
     direction -0.981723 0.189447 -0.0181673   
     length 3.74989  
     axis 0 0 0   XYZ 
    dof ry rz
    limits (-10.0 20.0)
           (-20.0 0.0)
  end
  begin
     id 25 
     name rhumerus
     direction -1 -4.48985e-011 2.38206e-027  
     length 4.61118   
     axis 180 30 90   XYZ
    dof rx ry rz
    limits (-90.0 60.0)
           (-90.0 90.0)
           (-90.0 90.0)
  end
  begin
     id 26 
     name rradius
     direction -1 -4.48977e-011 7.41019e-027   
     length 2.91491   
     axis 180 30 90   XYZ
    dof rx
    limits (-10.0 170.0)
  end
  begin
     id 27 
     name rwrist
     direction -1 -4.48549e-011 1.3624e-026   
     length 1.45745   
     axis -1.00488e-014 -90 -90   XYZ
    dof ry
    limits (-180.0 0.0)
  end
  begin
     id 28
     name rhand
     direction -1 -4.49107e-011 2.72109e-026   
     length 1.30769   
     axis -1.73687e-014 -90 -90   XYZ
    dof rx rz
    limits (-90.0 90.0)
           (-45.0 45.0)
  end
  begin
     id 29
     name rfingers
     direction -1 -4.48919e-011 5.44468e-026   
     length 1.05429   
     axis -3.47372e-014 -90 -90   XYZ
    dof rx
    limits (0.0 90.0)
  end
  begin
     id 30
     name rthumb
     direction -0.707107 -6.35315e-011 0.707107   
     length 1.51376   
     axis -90 -45 1.62303e-014   XYZ
    dof rx rz
    limits (-45.0 45.0)
           (-45.0 45.0)
  end
:hierarchy
  begin
    root lhipjoint rhipjoint lowerback
    lhipjoint lfemur
    lfemur ltibia
    ltibia lfoot
    lfoot ltoes
    rhipjoint rfemur
    rfemur rtibia
    rtibia rfoot
    rfoot rtoes
    lowerback upperback
    upperback thorax
    thorax lowerneck lclavicle rclavicle
    lowerneck upperneck
    upperneck head
    lclavicle lhumerus
    lhumerus lradius
    lradius lwrist
    lwrist lhand lthumb
    lhand lfingers
    rclavicle rhumerus
    rhumerus rradius
    rradius rwrist
    rwrist rhand rthumb
    rhand rfingers
  end

#!OML:ASF X:\für Bonn\!DataBase\2005_08_11_Bastian_Final\c3d\Bastian.ASF
:FULLY-SPECIFIED
:DEGREES
1
root 2.1602 14.5821 -0.739448 717.291 5.68557 -6.79499
lowerback 21.3442 -0.332794 1.67145
upperback 5.47929 -0.150706 -1.25746
thorax -5.95794 -0.0825739 -2.27129
lowerneck -17.2966 -6.54795 -3.85602
upperneck -15.8192 -7.06194 13.5922
head -1.29615 -3.42225 4.52436
rclavicle -1.03368e-014 -3.18055e-015
rhumerus -37.0158 -1.22448 -87.079
rradius 36.5422
rwrist 5.02616
rhand -24.2638 17.0871
rfingers 7.12502
rthumb 2.22261 -12.8811
lclavicle -1.03368e-014 -3.18055e-015
lhumerus -9.4825 -2.85545 84.7161
lradius 45.7182
lwrist -163.736
lhand -28.4023 6.93433
lfingers 7.12502
lthumb -1.77443 36.9067
rfemur -31.3003 -1.10161 31.8274
rtibia 80.3288
rfoot -37.6122 7.36043
rtoes 37.1054
lfemur -32.4409 -0.914682 -12.944
ltibia 84.9498
lfoot -35.9396 -12.422
ltoes -8.85742
2
root 2.16786 14.6532 -0.534608 717.368 5.48901 -6.59435
lowerback 20.4632 -0.475466 1.60986
upperback 5.314 -0.369689 -1.36065
thorax -5.68958 -0.188038 -2.28767
lowerneck -17.5295 -6.32173 -3.80824
upperneck -15.2807 -6.83149 13.3188
head -1.13762 -3.28394 4.42712
rclavicle 2.38542e-015 -1.90833e-014
rhumerus -36.6986 0.680767 -87.4122
rradius 40.2542
rwrist 6.86453
rhand -24.3121 17.4451
rfingers 7.12502
rthumb 2.17592 -12.5235
lclavicle 2.38542e-015 -1.90833e-014
lhumerus -8.84951 -5.68826 84.3463
lradius 48.4911
lwrist -162.966
lhand -29.0087 7.66417
lfingers 7.12502
lthumb -2.36008 37.6309
rfemur -29.9637 -0.588063 31.6843
rtibia 79.4649
rfoot -37.6111 7.34501
rtoes 37.4391
lfemur -31.2059 -0.821756 -13.0166
ltibia 84.1652
lfoot -35.5103 -12.7551
ltoes -9.1871
3
root 2.17939 14.7586 -0.308677 717.386 5.10302 -6.45391
lowerback 19.3565 -0.565555 1.61938
upperback 5.0482 -0.506373 -1.42608
thorax -5.40318 -0.255639 -2.32765
lowerneck -17.2391 -6.07405 -3.91443
upperneck -14.7778 -6.55102 13.0863
head -1.05846 -3.13361 4.3823
rclavicle 1.35174e-014 1.27222e-014
rhumerus -36.9673 2.87114 -87.7389
rradius 44.2599
rwrist 7.86688
rhand -23.8404 17.4875
rfingers 7.12502
rthumb 2.63145 -12.476
lclavicle 1.35174e-014 1.27222e-014
lhumerus -8.70451 -8.22737 83.9111
lradius 50.9761
lwrist -161.785
lhand -29.3332 8.72593
lfingers 7.12502
lthumb -2.67354 38.6889
rfemur -28.2728 -0.336201 31.5226
rtibia 78.0649
rfoot -37.1459 7.53722
rtoes 37.8389
lfemur -29.5874 -0.594105 -13.0038
ltibia 82.9556
lfoot -34.7528 -13.1251
ltoes -8.5868
4
root 2.19351 14.9038 -0.0566953 717.251 4.57423 -6.2739
lowerback 18.1459 -0.601494 1.57175
upperback 4.76947 -0.582463 -1.46534
thorax -5.06606 -0.293132 -2.3239
lowerneck -16.8563 -5.84664 -4.25221
upperneck -13.9382 -6.28839 12.9507
head -0.876492 -2.97609 4.39769
rclavicle 4.77083e-015 -7.95139e-015
rhumerus -37.5388 5.17452 -88.0252
rradius 48.3062
rwrist 8.37884
rhand -23.0668 17.559
rfingers 7.12502
rthumb 3.37858 -12.3939
lclavicle 4.77083e-015 -7.95139e-015
lhumerus -8.96907 -10.6095 83.4301
lradius 53.6252
lwrist -160.042
lhand -29.5923 9.54494
lfingers 7.12502
lthumb -2.92374 39.5046
rfemur -26.0583 -0.426143 31.2033
rtibia 76.1018
rfoot -36.2016 7.97892
rtoes 38.3723
lfemur -27.4039 -0.290807 -13.0323
ltibia 81.2151
lfoot -33.6244 -13.4412
ltoes -7.92258
